<svg id="Camada_1" data-name="Camada 1" xmlns="http://www.w3.org/2000/svg" viewBox="0 0 438.63 277.46"><defs><style>.cls-1{fill:#bfbebe;}.cls-2{fill:#bebdbd;}.cls-3{fill:#cccbcb;}.cls-4{fill:#dadada;}</style></defs><title>bemvindo</title><path class="cls-1" d="M660.1,232.58c3.79-3.46,6.56-6,9.35-8.55a26.29,26.29,0,0,1,22.6-6.88c7.83,1.23,12.54,6.44,15.28,13.54,1.1,2.86,1.53,4,4.2.8,6.61-7.92,14.09-14.62,25.47-14.56,12.78.07,20.74,7.67,22,21.44,2,22.26.42,44.58.91,66.86.12,5.16-.14,10.33.08,15.49.13,3.21-.85,4.41-4.21,4.32q-11.24-.33-22.48,0c-3.55.11-4.54-1.11-4.51-4.56.16-15.66,0-31.31.1-47a121,121,0,0,0-.88-15.92c-.73-5.71-3.82-9.27-8.44-9.53s-7.3,2.28-8.92,8.22a25.78,25.78,0,0,0-.68,6.92c0,18.82-.12,37.64.08,56.46,0,4-.84,5.63-5.18,5.41-7-.36-14-.31-21,0-3.92.17-5.13-1-5.09-5,.2-18.65.07-37.31.1-56a25.11,25.11,0,0,0-2.11-10.66c-1.5-3.28-3.87-5.54-7.69-5.3s-6.12,2.55-7.42,5.85a24.78,24.78,0,0,0-1.61,9.26c.06,19-.06,38,.1,57,0,3.64-.87,5-4.72,4.85-7.48-.28-15-.2-22.48,0-3.11.07-4-1-4-4q.13-48.47,0-96.93c0-2.58.46-4,3.53-4q12,.24,24,0c3-.06,3.73,1.28,3.58,3.92C660,226.44,660.1,228.9,660.1,232.58Z" transform="translate(-456.1 -164.96)"/><path class="cls-1" d="M771,425.21c-4.06,4.43-6.32,9.14-10.67,12.16C749,445.25,736,443.12,728,431.88c-6.46-9.06-9.55-19.49-10.64-30.25-1.66-16.56-1.52-33.15,4.61-49.08,2.24-5.82,5.21-11.26,9.88-15.38,11-9.68,25.24-8.11,35.22,3.55,1,1.21,1.52,3,3.79,3.68.07-1.53.19-2.92.19-4.31,0-18.81.1-37.63-.07-56.44,0-3.71,1-5,4.78-4.82,7.32.27,14.66.2,22,0,3.14-.07,4.4.78,4.39,4.17q-.14,75.93,0,151.85c0,3-.86,4.13-4,4.06-7.65-.17-15.32-.2-23,0-3.31.09-4.49-1-4.23-4.29C771.17,431.84,771,429,771,425.21Zm0-39.59c.34-6.33,0-12.61-2.47-18.6-1.6-3.9-3.87-6.91-8.66-7.09-5-.19-8.07,2.7-9.43,6.77-4.21,12.59-4.83,25.42-.36,38.09,1.54,4.38,4.54,8.14,9.78,7.95,5.08-.17,7.29-4.25,8.83-8.41A45.91,45.91,0,0,0,771,385.62Z" transform="translate(-456.1 -164.96)"/><path class="cls-1" d="M542.14,280.09c-1.35,14.29-3.57,28.24-13,40-7.81,9.67-22.64,11-31.91,2.67-3.43-3.08-6.07-6.84-10-11.61,0,4.15-.18,6.89.05,9.6.27,3.23-.87,4.41-4.19,4.32-8.63-.22-17.28-.14-25.91-.18q0-79.87,0-159.76c8.48,0,21.44.19,29.91-.09v1c-.16,20.75.18,45.25.18,67,3.19-3.48,5.71-6.38,8.39-9.12,9.12-9.35,22.08-9.51,31.5-.42,9,8.64,12.27,19.81,14,31.66.38,2.61.66,5.25,1,7.87Zm-31.07-7.47c.28-6.69.06-13.35-2.67-19.57-1.76-4-4.67-7-9.45-7s-7.15,3-8.85,6.9a19.42,19.42,0,0,0-1.29,3.76,69.49,69.49,0,0,0,1.06,33.93c1.37,4.74,4.46,8,9.5,8.19,5.28.19,8-3.54,9.58-8C511,284.93,511.35,278.8,511.07,272.62Z" transform="translate(-456.1 -164.96)"/><path class="cls-1" d="M662,348.38c4-4.85,6.83-8.89,10.87-12,13.7-10.37,35.53-7,38.34,15.63.95,7.66.6,15.26.66,22.89.15,19.64,0,39.28.13,58.92,0,3.84-.89,5.29-5,5.11-7.48-.33-15-.25-22.47,0-3.52.11-4.53-1.07-4.51-4.54.14-19.81.07-39.62.07-59.43,0-2.49,0-5-1.12-7.32-1.44-3.06-3.44-5.57-7-5.51-3.85.07-7.1,1.71-8.71,5.55a19.72,19.72,0,0,0-1.29,7.81c0,19.48-.08,38.95.11,58.43,0,3.95-1.08,5.19-5,5-7.31-.3-14.65-.17-22,0-2.86.06-4.19-.61-4.18-3.84q.15-48.69,0-97.38c0-2.85,1-3.76,3.79-3.71,7.82.13,15.65.17,23.47,0,3.22-.08,4,1.25,3.86,4.14S662,344.06,662,348.38Z" transform="translate(-456.1 -164.96)"/><path class="cls-1" d="M808,386.86c.43-13.53,1.82-26.89,9.41-38.63,6.91-10.7,16.53-17,29.64-17.36,10.16-.3,19.81.61,28.44,6.9,10.09,7.37,14.76,17.9,17.18,29.43A92.44,92.44,0,0,1,891,412.93c-4.81,16.3-17.88,27.21-34.31,29.12C829,445.26,815,427.4,810.19,407.6A70.45,70.45,0,0,1,808,386.86Zm55.07-.09c-.07-6.95.45-14-2.87-20.48-1.89-3.67-4.94-6.13-9-6.06-4.27.08-7.33,2.57-9.22,6.56a31,31,0,0,0-2.48,10.6c-.9,10.12-1.2,20.26,3.2,29.81,1.64,3.55,4.44,5.89,8.6,5.69a9.76,9.76,0,0,0,8.7-5.67C863.26,400.72,863,393.74,863,386.77Z" transform="translate(-456.1 -164.96)"/><path class="cls-1" d="M543,263c1.09-15.86,5.82-30.18,19.21-39.91,15.41-11.2,37.76-6.83,49.77,8.76,8.51,11.05,10.16,24,10.93,37.09.7,12,.33,12-11.65,12s-24,.07-36-.05c-3.27,0-4.3.63-3.61,4.28.74,3.9,1,7.91,2.49,11.63,1.65,4.16,4.67,7.11,9.31,7.09s8.35-2.46,9.72-7.13c.93-3.19,2.67-4,5.77-3.82,5.82.24,11.66.2,17.48,0,3.32-.11,4,1.25,3.39,4.21-3.54,16.67-16.35,29.29-31.31,30.78-18,1.78-32.2-6.18-39.57-22.35a64.18,64.18,0,0,1-6-25.49Zm39.73,0c12.67,0,13.72-1.47,9.86-13.8-.1-.32-.26-.62-.35-.94a9.32,9.32,0,0,0-7.63-7c-4-.76-7.25,1.07-9.45,4.28-3.37,4.92-4.5,11-2.54,16.14C573.88,264.93,579.26,262.31,582.73,263Z" transform="translate(-456.1 -164.96)"/><path class="cls-1" d="M541.61,390.56c4-18.23,7.83-35,11.33-51.92.71-3.43,1.92-4.79,5.51-4.68,7.49.23,15,.2,22.49,0,3.2-.08,4,.62,3,3.9-7.44,25-14.72,50-22.09,75-2.16,7.33-4.63,14.57-6.53,22-.78,3-1.93,4.17-5,4.07-5.83-.19-11.67-.2-17.49,0-3.05.11-4.41-1-5.24-3.93q-12.68-44-25.55-88c-.79-2.72-1.52-5.45-2.49-8.1-1.41-3.88,0-5,3.88-4.92,7.16.21,14.34.27,21.49,0,3.35-.14,4.36,1.49,4.93,4.17q5.11,24.08,10.27,48.16C540.36,387.22,540.77,388.12,541.61,390.56Z" transform="translate(-456.1 -164.96)"/><path class="cls-2" d="M587,396.94c0-12.49.11-25-.07-37.47,0-3.41.85-4.69,4.45-4.58,7.82.25,15.66.16,23.48,0,2.82,0,4.21.52,4.19,3.8q-.17,38.22,0,76.44c0,2.75-.77,3.86-3.66,3.81-8.16-.15-16.33-.18-24.49,0-3.14.07-4-1.09-3.93-4.06C587.12,422.26,587,409.6,587,396.94Z" transform="translate(-456.1 -164.96)"/><path class="cls-2" d="M602.79,350h-4c-13.18,0-13.13,0-11.8-13.11.21-2.15,1-2.91,3-2.89,8.66,0,17.43-.81,26,.29,6.28.81,2,7,2.91,10.61.49,2.08,1.18,5.29-3.12,5.13S607.12,350,602.79,350Z" transform="translate(-456.1 -164.96)"/><path class="cls-3" d="M457.09,165.09q0,79.88,0,159.76a4.49,4.49,0,0,1-.89.16q-.08-53.6-.14-107.2c0-17.61.11-35.23.17-52.85A7.37,7.37,0,0,1,457.09,165.09Z" transform="translate(-456.1 -164.96)"/><path class="cls-4" d="M543,263l0,17.14-.41,0-.42,0L542.05,263A6.08,6.08,0,0,0,543,263Z" transform="translate(-456.1 -164.96)"/></svg>